# xmcd
# 
# Track frame offsets:
#     150
#     13126
#     38852
#     72372
#     95887
#     110077
#     138172
#     170872
#     189332
#     205592
# 
# Disc length: 3140
# 
# Revision: 0
# Processed by: cddbd v1.5.2PL0 Copyright (c) Steve Scherf et al.
# Submitted via: fre:ac v1.0.31
# 
DISCID=910c420a
DTITLE=Roy Buchanan - Charly Blues Masterworks Vol4 Roy Buchanan
DYEAR=2009
DGENRE=Blues
TTITLE0=Short Fuse
TTITLE1=Green Onions
TTITLE2=Strange Kind Of Feeling
TTITLE3=Pressure
TTITLE4=Peter Gunn
TTITLE5=Chicago Smoke Shop
TTITLE6=Blues in E
TTITLE7=Hey Joe
TTITLE8=Foxy Lady
TTITLE9=Fantasia
EXTD=
EXTT0=
EXTT1=
EXTT2=
EXTT3=
EXTT4=
EXTT5=
EXTT6=
EXTT7=
EXTT8=
EXTT9=
PLAYORDER=
